<svg xmlns="http://www.w3.org/2000/svg" viewBox="0 0 128 128">
  <defs>
    <linearGradient id="leafGrad" x1="0%" y1="0%" x2="100%" y2="100%">
      <stop offset="0%" stop-color="#000000"/>
      <stop offset="50%" stop-color="#000000"/>
      <stop offset="50%" stop-color="#F97D2E"/>
      <stop offset="100%" stop-color="#F97D2E"/>
    </linearGradient>
  </defs>
  <path d="M64 124 C16 90 4 52 8 24 C12 6 36 2 64 2 C92 2 116 6 120 24 C124 52 112 90 64 124Z"
        fill="#F97D2E" stroke="#000000" stroke-width="5" stroke-linejoin="round"/>
  <rect x="61" y="120" width="6" height="8" fill="#000000" rx="2"/>
  <path d="M64 6 L64 118" stroke="#000000" stroke-width="5" stroke-linecap="round"/>
  <path d="M64 34 L26 20" stroke="#000000" stroke-width="3" stroke-linecap="round"/>
  <path d="M64 34 L102 20" stroke="#000000" stroke-width="3" stroke-linecap="round"/>
  <path d="M64 52 L28 38" stroke="#000000" stroke-width="3" stroke-linecap="round"/>
  <path d="M64 52 L100 38" stroke="#000000" stroke-width="3" stroke-linecap="round"/>
  <path d="M64 74 L34 56" stroke="#000000" stroke-width="3" stroke-linecap="round"/>
  <path d="M64 74 L94 56" stroke="#000000" stroke-width="3" stroke-linecap="round"/>
  <path d="M64 96 L42 78" stroke="#000000" stroke-width="3" stroke-linecap="round"/>
  <path d="M64 96 L86 78" stroke="#000000" stroke-width="3" stroke-linecap="round"/>
</svg>
